<?xml version="1.0" encoding="UTF-8" standalone="no"?>
<svg
   xmlns:osb="http://www.openswatchbook.org/uri/2009/osb"
   xmlns:dc="http://purl.org/dc/elements/1.1/"
   xmlns:cc="http://creativecommons.org/ns#"
   xmlns:rdf="http://www.w3.org/1999/02/22-rdf-syntax-ns#"
   xmlns:svg="http://www.w3.org/2000/svg"
   xmlns="http://www.w3.org/2000/svg"
   xmlns:xlink="http://www.w3.org/1999/xlink"
   xmlns:sodipodi="http://sodipodi.sourceforge.net/DTD/sodipodi-0.dtd"
   xmlns:inkscape="http://www.inkscape.org/namespaces/inkscape"
   inkscape:export-ydpi="123.85523"
   inkscape:export-xdpi="123.85523"
   inkscape:export-filename="/home/saroj/Pictures/ShroonStructure1024x1024.png"
   sodipodi:docname="ShroonStructure.svg"
   inkscape:version="1.0.1 (1.0.1+r74)"
   id="svg8"
   version="1.1"
   viewBox="0 0 210 210"
   height="210mm"
   width="210mm">
  <defs
     id="defs2">
    <linearGradient
       id="linearGradient897"
       inkscape:collect="always">
      <stop
         id="stop893"
         offset="0"
         style="stop-color:#0090ff;stop-opacity:1;" />
      <stop
         id="stop895"
         offset="1"
         style="stop-color:#0090ff;stop-opacity:0;" />
    </linearGradient>
    <linearGradient
       osb:paint="solid"
       id="linearGradient875">
      <stop
         id="stop873"
         offset="0"
         style="stop-color:#d4d5d4;stop-opacity:1;" />
    </linearGradient>
    <marker
       inkscape:isstock="true"
       style="overflow:visible"
       id="Arrow1Lstart"
       refX="0.0"
       refY="0.0"
       orient="auto"
       inkscape:stockid="Arrow1Lstart">
      <path
         transform="scale(0.8) translate(12.5,0)"
         style="fill-rule:evenodd;stroke:none;stroke-width:1pt;stroke-opacity:1;fill:#55ddff;fill-opacity:1"
         d="M 0.0,0.0 L 5.0,-5.0 L -12.5,0.0 L 5.0,5.0 L 0.0,0.0 z "
         id="path1123" />
    </marker>
    <linearGradient
       gradientUnits="userSpaceOnUse"
       y2="673.15991"
       x2="740.62811"
       y1="365.85028"
       x1="288.62756"
       id="linearGradient899"
       xlink:href="#linearGradient897"
       inkscape:collect="always"
       gradientTransform="matrix(0.05714198,0,0,0.05714198,78.179402,85.564686)" />
    <linearGradient
       inkscape:collect="always"
       xlink:href="#linearGradient897"
       id="linearGradient977"
       gradientUnits="userSpaceOnUse"
       gradientTransform="matrix(0.05714198,0,0,0.05714198,78.179402,27.306294)"
       x1="288.62756"
       y1="365.85028"
       x2="740.62811"
       y2="673.15991" />
    <linearGradient
       inkscape:collect="always"
       xlink:href="#linearGradient897"
       id="linearGradient1013"
       gradientUnits="userSpaceOnUse"
       gradientTransform="matrix(0.05714198,0,0,0.05714198,78.179402,144.68859)"
       x1="288.62756"
       y1="365.85028"
       x2="740.62811"
       y2="673.15991" />
  </defs>
  <sodipodi:namedview
     inkscape:window-maximized="1"
     inkscape:window-y="0"
     inkscape:window-x="0"
     inkscape:window-height="1013"
     inkscape:window-width="1920"
     showgrid="false"
     inkscape:document-rotation="0"
     inkscape:current-layer="layer3"
     inkscape:document-units="mm"
     inkscape:cy="312.06729"
     inkscape:cx="144.64885"
     inkscape:zoom="0.52280161"
     inkscape:pageshadow="2"
     inkscape:pageopacity="0.0"
     borderopacity="1.0"
     bordercolor="#666666"
     pagecolor="#ffffff"
     id="base" />
  <metadata
     id="metadata5">
    <rdf:RDF>
      <cc:Work
         rdf:about="">
        <dc:format>image/svg+xml</dc:format>
        <dc:type
           rdf:resource="http://purl.org/dc/dcmitype/StillImage" />
        <dc:title></dc:title>
      </cc:Work>
    </rdf:RDF>
  </metadata>
  <g
     inkscape:groupmode="layer"
     id="layer3"
     inkscape:label="Boxes">
    <rect
       style="opacity:0.8;fill:#4d4d4d;stroke:#b609ff;stroke-width:0"
       id="rect1034"
       width="160.10875"
       height="43.320484"
       x="26.00432"
       y="25.54265" />
    <rect
       style="opacity:0.8;fill:#4d4d4d;stroke:#b609ff;stroke-width:0"
       id="rect1036"
       width="160.10875"
       height="43.320484"
       x="26.00432"
       y="83.853134" />
    <rect
       style="opacity:0.8;fill:#4d4d4d;stroke:#b609ff;stroke-width:0"
       id="rect1038"
       width="160.10875"
       height="43.320469"
       x="26.00432"
       y="142.1675" />
  </g>
  <g
     id="layer1"
     inkscape:groupmode="layer"
     inkscape:label="Shroon"
     style="display:inline">
    <path
       id="path35"
       style="fill:none;stroke:#ffe600;stroke-width:0.383778;stroke-linecap:butt;stroke-linejoin:miter;stroke-miterlimit:4;stroke-dasharray:none;stroke-dashoffset:0;stroke-opacity:1"
       d="m 83.19676,104.39356 c 0,0 3.226063,-5.154984 19.62998,-2.1319 m -3.673172,-5.104223 3.673172,5.104223 m -19.62998,2.1319 5.900711,-8.913958 c 0,0 2.391395,3.833565 10.056097,1.677835" />
    <path
       id="path41"
       style="fill:none;stroke:#ffe600;stroke-width:0.318987;stroke-linecap:butt;stroke-linejoin:miter;stroke-miterlimit:4;stroke-dasharray:none;stroke-dashoffset:0;stroke-opacity:1"
       d="m 89.28518,102.42734 7.588935,3.2835 c 0,0 1.344751,-2.50868 5.862115,-2.7922 m -13.45105,-0.4913 c 0,0 5.895804,-1.07888 13.45105,0.4913" />
    <path
       d="m 96.875351,106.15389 -8.147358,-3.51622 c 0,0 -2.657802,-0.16997 -6.86864,3.64957 l 6.736532,-12.690747 c 0,0 3.421603,4.373767 8.104978,3.584061 m 0.174488,8.973336 c -0.518329,1.97149 -3.832486,8.97012 -7.147584,9.88808 0,0 6.472066,-0.24729 9.518448,-4.14856 0,0 0.03328,7.20565 -5.295588,12.96666 0,0 7.870063,-4.34705 11.102833,-10.84931 0,0 1.89706,5.18774 0.82914,8.88738 0,0 3.59736,-2.07543 5.83152,-6.88735 0,0 3.17735,4.39344 4.8767,10.93749 l 0.31913,-6.12182 M 96.700863,97.180554 c 0,0 -0.126116,-3.621176 4.077587,-4.962129 4.2037,-1.340953 9.2144,-1.197174 11.49191,0.547694 2.2775,1.744873 4.02375,2.882344 4.95453,7.450901 0.93076,4.56857 -0.31494,20.60944 -0.31494,20.60944"
       style="fill:none;stroke:#000000;stroke-width:0.0364989;stroke-linecap:butt;stroke-linejoin:miter;stroke-miterlimit:4;stroke-dasharray:0, 0.401488;stroke-dashoffset:0.364989;stroke-opacity:1"
       id="path47" />
    <path
       d="m 97.248619,97.078158 2.24983,-0.677879 m -2.24983,0.677879 c 0,0 -0.193597,-3.305714 4.401561,-4.679248 m 0,0 c 0,0 3.3725,-1.062431 6.64527,-0.554194 0,0 4.36359,0.336157 7.32712,4.831497 0,0 1.24862,2.309186 1.50566,5.801527 l -0.0232,4.95418 -0.24795,6.16362 m 0,0 c 0,0 0.0804,4.68674 -0.96591,8.06034 0,0 -1.885,-4.8347 -4.46906,-6.5236 0,0 0.29201,0.87851 -3.71071,4.6497 0,0 -0.75528,-5.41909 -2.79625,-6.7234 0,0 -2.70914,4.55163 -6.060453,6.55324 0,0 2.012143,-5.79195 0.597264,-8.75473 m 0,0 c 0,0 -2.933016,2.92568 -5.145083,2.99637 0,0 2.069218,-3.12329 2.555308,-6.23759 m 0,0 0.509911,-1.40614 c 0,0 0.328308,-2.36314 6.462493,-3.06677 l -4.336151,-6.742681"
       style="fill:none;fill-opacity:1;stroke:#aeffff;stroke-width:0.470166;stroke-linecap:butt;stroke-linejoin:miter;stroke-miterlimit:4;stroke-dasharray:none;stroke-dashoffset:0;stroke-opacity:1"
       id="path59" />
    <path
       sodipodi:nodetypes="ccc"
       id="path61"
       d="m 110.45712,93.683321 c -8.80694,-1.284411 -7.51254,3.144109 -7.51254,3.144109 0,0 6.43645,0.01972 7.51254,-3.144109 z"
       style="fill:none;stroke:#80bfff;stroke-width:0.356782;stroke-linecap:butt;stroke-linejoin:miter;stroke-miterlimit:4;stroke-dasharray:none;stroke-dashoffset:0;stroke-opacity:1" />
    <path
       style="fill:none;stroke:#b7ffff;stroke-width:0.134765;stroke-linecap:butt;stroke-linejoin:miter;stroke-miterlimit:4;stroke-dasharray:none;stroke-dashoffset:0;stroke-opacity:1"
       d="m 109.97577,93.952884 c -7.37319,-0.951206 -6.71913,2.566034 -6.71913,2.566034 0,0 5.67115,-0.237022 6.71913,-2.566034 z"
       id="path63"
       sodipodi:nodetypes="ccc" />
    <path
       sodipodi:nodetypes="cc"
       id="path71"
       d="m 107.18574,93.79528 c 0,0 1.21293,0.358199 0.79406,1.765794"
       style="fill:none;stroke:#000000;stroke-width:0.0382266;stroke-linecap:butt;stroke-linejoin:miter;stroke-miterlimit:4;stroke-dasharray:0, 0.420493;stroke-dashoffset:0;stroke-opacity:1" />
    <path
       sodipodi:nodetypes="cc"
       id="path73"
       d="m 105.39897,94.037836 c 0,0 -0.90825,1.3834 0.4492,2.137151"
       style="fill:none;stroke:#000000;stroke-width:0.0382266;stroke-linecap:butt;stroke-linejoin:miter;stroke-miterlimit:4;stroke-dasharray:0, 0.420493;stroke-dashoffset:0;stroke-opacity:1" />
    <path
       transform="scale(0.26458333)"
       id="path267"
       d=""
       style="fill:#d5f6ff;stroke-width:0.431953" />
    <path
       transform="scale(0.26458333)"
       id="path269"
       d=""
       style="fill:#d5f6ff;stroke-width:0.431953" />
    <path
       transform="scale(0.26458333)"
       id="path276"
       d=""
       style="fill:#000000;stroke-width:0.226192" />
    <path
       transform="scale(0.26458333)"
       id="path278"
       d=""
       style="fill:#000000;stroke-width:1.02238" />
    <path
       id="path943"
       style="fill:none;stroke:#ffe600;stroke-width:0.383778;stroke-linecap:butt;stroke-linejoin:miter;stroke-miterlimit:4;stroke-dasharray:none;stroke-dashoffset:0;stroke-opacity:1"
       d="m 83.19676,46.135168 c 0,0 3.226063,-5.154984 19.62998,-2.1319 m -3.673172,-5.104223 3.673172,5.104223 m -19.62998,2.1319 5.900711,-8.913958 c 0,0 2.391395,3.833565 10.056097,1.677835" />
    <path
       id="path945"
       style="fill:none;stroke:#ffe600;stroke-width:0.318987;stroke-linecap:butt;stroke-linejoin:miter;stroke-miterlimit:4;stroke-dasharray:none;stroke-dashoffset:0;stroke-opacity:1"
       d="m 89.28518,44.168948 7.588935,3.2835 c 0,0 1.344751,-2.50868 5.862115,-2.7922 m -13.45105,-0.4913 c 0,0 5.895804,-1.07888 13.45105,0.4913" />
    <path
       d="m 96.875351,47.895498 -8.147358,-3.51622 c 0,0 -2.657802,-0.16997 -6.86864,3.64957 l 6.736532,-12.690747 c 0,0 3.421603,4.373767 8.104978,3.584061 m 0.174488,8.973336 c -0.518329,1.97149 -3.832486,8.97012 -7.147584,9.88808 0,0 6.472066,-0.24729 9.518448,-4.14856 0,0 0.03328,7.20565 -5.295588,12.96666 0,0 7.870063,-4.34705 11.102833,-10.84931 0,0 1.89706,5.18774 0.82914,8.88738 0,0 3.59736,-2.07543 5.83152,-6.88735 0,0 3.17735,4.39344 4.8767,10.93749 l 0.31913,-6.12182 M 96.700863,38.922162 c 0,0 -0.126116,-3.621176 4.077587,-4.962129 4.2037,-1.340953 9.2144,-1.197174 11.49191,0.547694 2.2775,1.744873 4.02375,2.882344 4.95453,7.450901 0.93076,4.56857 -0.31494,20.60944 -0.31494,20.60944"
       style="fill:none;stroke:#000000;stroke-width:0.0364989;stroke-linecap:butt;stroke-linejoin:miter;stroke-miterlimit:4;stroke-dasharray:0, 0.401488;stroke-dashoffset:0.364989;stroke-opacity:1"
       id="path947" />
    <path
       d="m 97.248619,38.819766 2.24983,-0.677879 m -2.24983,0.677879 c 0,0 -0.193597,-3.305714 4.401561,-4.679248 m 0,0 c 0,0 3.3725,-1.062431 6.64527,-0.554194 0,0 4.36359,0.336157 7.32712,4.831497 0,0 1.24862,2.309186 1.50566,5.801527 l -0.0232,4.95418 -0.24795,6.16362 m 0,0 c 0,0 0.0804,4.68674 -0.96591,8.06034 0,0 -1.885,-4.8347 -4.46906,-6.5236 0,0 0.29201,0.87851 -3.71071,4.6497 0,0 -0.75528,-5.41909 -2.79625,-6.7234 0,0 -2.70914,4.55163 -6.060453,6.55324 0,0 2.012143,-5.79195 0.597264,-8.75473 m 0,0 c 0,0 -2.933016,2.92568 -5.145083,2.99637 0,0 2.069218,-3.12329 2.555308,-6.23759 m 0,0 0.509911,-1.40614 c 0,0 0.328308,-2.36314 6.462493,-3.06677 l -4.336151,-6.742681"
       style="fill:none;fill-opacity:1;stroke:#aeffff;stroke-width:0.470166;stroke-linecap:butt;stroke-linejoin:miter;stroke-miterlimit:4;stroke-dasharray:none;stroke-dashoffset:0;stroke-opacity:1"
       id="path949" />
    <path
       sodipodi:nodetypes="ccc"
       id="path951"
       d="m 110.45712,35.424929 c -8.80694,-1.284411 -7.51254,3.144109 -7.51254,3.144109 0,0 6.43645,0.01972 7.51254,-3.144109 z"
       style="fill:none;stroke:#80bfff;stroke-width:0.356782;stroke-linecap:butt;stroke-linejoin:miter;stroke-miterlimit:4;stroke-dasharray:none;stroke-dashoffset:0;stroke-opacity:1" />
    <path
       style="fill:none;stroke:#b7ffff;stroke-width:0.134765;stroke-linecap:butt;stroke-linejoin:miter;stroke-miterlimit:4;stroke-dasharray:none;stroke-dashoffset:0;stroke-opacity:1"
       d="m 109.97577,35.694492 c -7.37319,-0.951206 -6.71913,2.566034 -6.71913,2.566034 0,0 5.67115,-0.237022 6.71913,-2.566034 z"
       id="path953"
       sodipodi:nodetypes="ccc" />
    <path
       sodipodi:nodetypes="cc"
       id="path955"
       d="m 107.18574,35.536888 c 0,0 1.21293,0.358199 0.79406,1.765794"
       style="fill:none;stroke:#000000;stroke-width:0.0382266;stroke-linecap:butt;stroke-linejoin:miter;stroke-miterlimit:4;stroke-dasharray:0, 0.420493;stroke-dashoffset:0;stroke-opacity:1" />
    <path
       sodipodi:nodetypes="cc"
       id="path957"
       d="m 105.39897,35.779444 c 0,0 -0.90825,1.3834 0.4492,2.137151"
       style="fill:none;stroke:#000000;stroke-width:0.0382266;stroke-linecap:butt;stroke-linejoin:miter;stroke-miterlimit:4;stroke-dasharray:0, 0.420493;stroke-dashoffset:0;stroke-opacity:1" />
    <path
       id="path979"
       style="fill:none;stroke:#ffe600;stroke-width:0.383778;stroke-linecap:butt;stroke-linejoin:miter;stroke-miterlimit:4;stroke-dasharray:none;stroke-dashoffset:0;stroke-opacity:1"
       d="m 83.19676,163.51746 c 0,0 3.226063,-5.15498 19.62998,-2.1319 m -3.673172,-5.10422 3.673172,5.10422 m -19.62998,2.1319 5.900711,-8.91395 c 0,0 2.391395,3.83356 10.056097,1.67783" />
    <path
       id="path981"
       style="fill:none;stroke:#ffe600;stroke-width:0.318987;stroke-linecap:butt;stroke-linejoin:miter;stroke-miterlimit:4;stroke-dasharray:none;stroke-dashoffset:0;stroke-opacity:1"
       d="m 89.28518,161.55124 7.588935,3.2835 c 0,0 1.344751,-2.50868 5.862115,-2.7922 m -13.45105,-0.4913 c 0,0 5.895804,-1.07888 13.45105,0.4913" />
    <path
       d="m 96.875351,165.27779 -8.147358,-3.51622 c 0,0 -2.657802,-0.16997 -6.86864,3.64957 l 6.736532,-12.69074 c 0,0 3.421603,4.37376 8.104978,3.58406 m 0.174488,8.97333 c -0.518329,1.97149 -3.832486,8.97012 -7.147584,9.88808 0,0 6.472066,-0.24729 9.518448,-4.14856 0,0 0.03328,7.20565 -5.295588,12.96666 0,0 7.870063,-4.34705 11.102833,-10.84931 0,0 1.89706,5.18774 0.82914,8.88738 0,0 3.59736,-2.07543 5.83152,-6.88735 0,0 3.17735,4.39344 4.8767,10.93749 l 0.31913,-6.12182 m -20.209087,-23.6459 c 0,0 -0.126116,-3.62118 4.077587,-4.96213 4.2037,-1.34095 9.2144,-1.19717 11.49191,0.54769 2.2775,1.74488 4.02375,2.88235 4.95453,7.4509 0.93076,4.56857 -0.31494,20.60944 -0.31494,20.60944"
       style="fill:none;stroke:#000000;stroke-width:0.0364989;stroke-linecap:butt;stroke-linejoin:miter;stroke-miterlimit:4;stroke-dasharray:0, 0.401488;stroke-dashoffset:0.364989;stroke-opacity:1"
       id="path983" />
    <path
       d="m 97.248619,156.20206 2.24983,-0.67788 m -2.24983,0.67788 c 0,0 -0.193597,-3.30571 4.401561,-4.67925 m 0,0 c 0,0 3.3725,-1.06243 6.64527,-0.55419 0,0 4.36359,0.33616 7.32712,4.8315 0,0 1.24862,2.30918 1.50566,5.80152 l -0.0232,4.95418 -0.24795,6.16362 m 0,0 c 0,0 0.0804,4.68674 -0.96591,8.06034 0,0 -1.885,-4.8347 -4.46906,-6.5236 0,0 0.29201,0.87851 -3.71071,4.6497 0,0 -0.75528,-5.41909 -2.79625,-6.7234 0,0 -2.70914,4.55163 -6.060453,6.55324 0,0 2.012143,-5.79195 0.597264,-8.75473 m 0,0 c 0,0 -2.933016,2.92568 -5.145083,2.99637 0,0 2.069218,-3.12329 2.555308,-6.23759 m 0,0 0.509911,-1.40614 c 0,0 0.328308,-2.36314 6.462493,-3.06677 l -4.336151,-6.74268"
       style="fill:none;fill-opacity:1;stroke:#aeffff;stroke-width:0.470166;stroke-linecap:butt;stroke-linejoin:miter;stroke-miterlimit:4;stroke-dasharray:none;stroke-dashoffset:0;stroke-opacity:1"
       id="path985" />
    <path
       sodipodi:nodetypes="ccc"
       id="path987"
       d="m 110.45712,152.80723 c -8.80694,-1.28442 -7.51254,3.1441 -7.51254,3.1441 0,0 6.43645,0.0197 7.51254,-3.1441 z"
       style="fill:none;stroke:#80bfff;stroke-width:0.356782;stroke-linecap:butt;stroke-linejoin:miter;stroke-miterlimit:4;stroke-dasharray:none;stroke-dashoffset:0;stroke-opacity:1" />
    <path
       style="fill:none;stroke:#b7ffff;stroke-width:0.134765;stroke-linecap:butt;stroke-linejoin:miter;stroke-miterlimit:4;stroke-dasharray:none;stroke-dashoffset:0;stroke-opacity:1"
       d="m 109.97577,153.07679 c -7.37319,-0.95121 -6.71913,2.56603 -6.71913,2.56603 0,0 5.67115,-0.23702 6.71913,-2.56603 z"
       id="path989"
       sodipodi:nodetypes="ccc" />
    <path
       sodipodi:nodetypes="cc"
       id="path991"
       d="m 107.18574,152.91918 c 0,0 1.21293,0.3582 0.79406,1.7658"
       style="fill:none;stroke:#000000;stroke-width:0.0382266;stroke-linecap:butt;stroke-linejoin:miter;stroke-miterlimit:4;stroke-dasharray:0, 0.420493;stroke-dashoffset:0;stroke-opacity:1" />
    <path
       sodipodi:nodetypes="cc"
       id="path993"
       d="m 105.39897,153.16174 c 0,0 -0.90825,1.3834 0.4492,2.13715"
       style="fill:none;stroke:#000000;stroke-width:0.0382266;stroke-linecap:butt;stroke-linejoin:miter;stroke-miterlimit:4;stroke-dasharray:0, 0.420493;stroke-dashoffset:0;stroke-opacity:1" />
  </g>
  <g
     inkscape:groupmode="layer"
     id="layer2"
     inkscape:label="Color"
     style="display:inline">
    <path
       style="fill:#ffe680;fill-opacity:1;stroke:#000000;stroke-width:0.0753737;stroke-miterlimit:4;stroke-dasharray:0, 0.829107;stroke-dashoffset:0;stroke-opacity:1"
       d="m 83.866398,103.56065 c 0.0067,-0.0185 1.185796,-1.80643 2.620187,-3.973244 l 2.607984,-3.939662 0.217631,0.236512 c 0.872267,0.947947 2.23123,1.617438 3.810623,1.877297 0.497513,0.08186 0.645714,0.09684 1.207713,0.122071 1.347101,0.06049 2.97202,-0.137368 4.501777,-0.548153 0.15523,-0.04169 0.290636,-0.06592 0.300901,-0.05386 0.109891,0.129107 3.458226,4.817249 3.447906,4.827559 -0.008,0.008 -0.37433,-0.047 -0.81479,-0.12146 -2.067686,-0.34965 -4.098485,-0.58566 -6.093892,-0.7082 -0.814471,-0.05 -3.343289,-0.0501 -4.040619,-1.2e-4 -2.025951,0.14522 -3.577116,0.42432 -4.994861,0.89873 -1.067798,0.35731 -1.900994,0.7773 -2.721938,1.37204 -0.03362,0.0243 -0.05537,0.029 -0.04862,0.0105 z"
       id="path2237" />
    <path
       style="fill:#ffe680;fill-opacity:1;stroke:#000000;stroke-width:0.0754;stroke-miterlimit:4;stroke-dasharray:0, 0.829399;stroke-dashoffset:0;stroke-opacity:1"
       d="m 93.301743,104.0704 c -1.90252,-0.82581 -3.512804,-1.52435 -3.578408,-1.55233 l -0.119281,-0.0509 0.149101,-0.0234 c 0.225266,-0.0353 1.201916,-0.139 1.640103,-0.17414 1.828314,-0.14661 3.972876,-0.15223 5.859644,-0.0153 1.530326,0.11103 2.826298,0.2714 4.374118,0.54128 l 0.4698,0.0819 -0.49879,0.0828 c -1.46611,0.24334 -2.606112,0.698 -3.599626,1.43563 -0.323227,0.23998 -0.852349,0.76019 -1.028792,1.01147 -0.06561,0.0934 -0.139409,0.16864 -0.164011,0.16714 -0.0246,-0.002 -1.601338,-0.67839 -3.503858,-1.50419 z"
       id="path2239" />
    <path
       style="fill:#d5f6ff;fill-opacity:1;stroke:#000000;stroke-width:0.0849113;stroke-miterlimit:4;stroke-dasharray:0, 0.934026;stroke-dashoffset:0;stroke-opacity:1"
       d="m 116.46238,126.06613 c -0.10334,-0.44874 -0.82604,-2.55133 -1.19229,-3.46877 -0.66222,-1.65887 -1.29645,-2.99426 -2.14226,-4.51063 -0.4594,-0.82363 -1.39074,-2.28552 -1.42926,-2.24349 -0.0118,0.0129 -0.18123,0.33049 -0.37649,0.70582 -1.22414,2.35296 -2.97367,4.44184 -4.89723,5.84712 -0.34775,0.25406 -0.37613,0.2643 -0.34214,0.12343 0.16177,-0.67045 0.20004,-1.11482 0.19612,-2.27716 -0.005,-1.41568 -0.12627,-2.43639 -0.46897,-3.9401 -0.18495,-0.81149 -0.60628,-2.27317 -0.70728,-2.45363 -0.0371,-0.0662 -0.14076,0.0789 -0.36055,0.50441 -1.36141,2.63595 -4.16424,5.69553 -7.49396,8.18044 -0.925998,0.69106 -2.509492,1.75237 -2.551654,1.71021 -0.0174,-0.0174 0.116918,-0.21535 0.298478,-0.4399 1.880461,-2.32572 3.35598,-5.59433 3.984683,-8.82699 0.259029,-1.33188 0.470728,-3.33169 0.351393,-3.31942 -0.03073,0.003 -0.231564,0.2131 -0.446296,0.46653 -1.486027,1.75389 -4.149589,3.04492 -7.452624,3.61231 -0.925357,0.15895 -0.954646,0.14351 -0.415238,-0.21895 1.130387,-0.75956 2.358162,-2.21103 3.583934,-4.23691 1.206277,-1.99366 2.53788,-4.98901 2.311112,-5.19869 -0.04514,-0.0417 -1.911829,-0.8638 -4.148208,-1.82682 l -4.066143,-1.75094 -0.502709,0.0742 c -1.485017,0.21928 -3.533946,1.25839 -5.312874,2.69442 -0.309684,0.24999 -0.563062,0.43897 -0.563062,0.41996 0,-0.0355 6.239027,-11.809577 6.286624,-11.863883 0.01456,-0.01662 0.101713,0.06592 0.193665,0.183411 0.30183,0.385668 1.453283,1.361958 2.175747,1.844764 1.150428,0.768807 2.190169,1.201793 3.374368,1.40521 0.61776,0.106116 1.700768,0.132126 2.153405,0.05172 l 0.252028,-0.04477 0.108664,-0.643282 c 0.367811,-2.177393 1.765404,-3.633154 4.193097,-4.367615 1.9609,-0.59324 3.24299,-0.776015 5.45801,-0.778092 1.47882,-0.0014 1.80783,0.01706 2.47748,0.138881 1.61961,0.294643 2.45086,0.664091 3.79285,1.685733 1.72481,1.313083 2.57928,2.269296 3.25542,3.643062 0.56071,1.139231 0.9751,2.525754 1.18279,3.957531 0.39719,2.73815 0.2759,9.73547 -0.32124,18.53281 -0.0564,0.83172 -0.16674,2.71396 -0.24508,4.18275 -0.0954,1.78799 -0.15958,2.5961 -0.19431,2.4453 z m -0.2733,-5.13191 c 0.46431,-1.88269 0.66229,-3.59681 0.75251,-6.51545 0.0345,-1.11486 0.10497,-3.04053 0.15667,-4.27927 0.12273,-2.94039 0.14475,-7.91436 0.0383,-8.65508 -0.30116,-2.095916 -0.98967,-4.24519 -1.67787,-5.237686 -1.21571,-1.753264 -2.98898,-3.145225 -5.04962,-3.963798 -1.9301,-0.766717 -4.76638,-0.87113 -7.59474,-0.279587 -2.52652,0.528413 -4.147417,1.4872 -5.069422,2.998653 -0.425774,0.697977 -0.755028,2.043162 -0.521983,2.132591 0.05671,0.02176 0.581265,-0.106889 1.165684,-0.285887 0.584419,-0.178999 1.068515,-0.316815 1.075769,-0.306259 0.201297,0.292937 4.154322,6.479933 4.154322,6.502053 0,0.0176 -0.18098,0.0523 -0.40219,0.077 -1.69459,0.18948 -3.663095,0.82357 -4.657266,1.50019 -0.425631,0.28967 -0.989815,0.86054 -1.132306,1.14572 -0.176782,0.3538 -0.678386,1.92365 -0.874288,2.73622 -0.338407,1.40366 -0.974348,2.93123 -1.870653,4.49341 -0.287512,0.50112 -0.522749,0.92864 -0.522749,0.95005 0,0.0776 0.731887,-0.0496 1.227162,-0.21329 0.956336,-0.31607 2.15681,-1.0676 3.397826,-2.12713 0.702047,-0.59938 0.656874,-0.60668 0.863369,0.13947 0.182265,0.65859 0.224145,2.48848 0.08179,3.57352 -0.137434,1.04749 -0.486047,2.65325 -0.799817,3.68404 -0.13736,0.45125 -0.234872,0.82046 -0.216693,0.82046 0.08937,0 1.199591,-0.78744 1.685195,-1.19525 1.24608,-1.04646 2.83131,-2.85889 3.97171,-4.54098 0.30855,-0.45511 0.57816,-0.82748 0.59914,-0.82748 0.0725,0 0.62733,0.61247 0.83513,0.92193 0.65138,0.97002 1.35621,3.07465 1.71162,5.11089 0.0633,0.36277 0.13499,0.65959 0.15926,0.65959 0.0243,0 0.59145,-0.55743 1.2604,-1.23874 1.26508,-1.28845 2.16409,-2.39841 2.41807,-2.98543 0.0815,-0.18837 0.16724,-0.34298 0.19054,-0.34359 0.0233,-5.7e-4 0.19704,0.12495 0.3861,0.27899 0.59676,0.48626 1.37454,1.44218 2.08794,2.56614 0.42838,0.67491 1.34048,2.43742 1.66572,3.21877 0.0994,0.2389 0.20116,0.43436 0.22604,0.43436 0.0249,0 0.15057,-0.42712 0.27931,-0.94916 z M 97.5975,105.05249 c 1.085265,-1.0829 2.60667,-1.74717 4.5077,-1.96815 0.55632,-0.0647 0.67829,-0.0977 0.66255,-0.1794 -0.0222,-0.11555 -0.56324,-0.23071 -2.27,-0.48321 -2.470086,-0.36544 -5.18136,-0.51254 -7.67343,-0.41633 -1.259295,0.0486 -2.862492,0.18589 -3.373316,0.28885 -0.297775,0.06 -0.272373,0.20502 0.0613,0.34991 7.853823,3.41036 7.374613,3.21385 7.473875,3.06474 0.05062,-0.076 0.325714,-0.37143 0.611325,-0.65641 z m -14.055143,-0.89101 c 0.556821,-0.60408 1.773809,-1.30495 3.02646,-1.74294 2.795123,-0.97734 6.636184,-1.23916 11.290577,-0.76961 1.102409,0.11122 3.281846,0.4172 4.278976,0.60074 0.50375,0.0927 0.68746,0.10532 0.7229,0.0496 0.0261,-0.0411 0.0407,-0.0943 0.0325,-0.11817 -0.04,-0.11533 -3.628237,-5.068122 -3.691659,-5.095513 -0.04016,-0.01735 -0.344213,0.03788 -0.675676,0.12273 -1.397428,0.357705 -2.113359,0.444664 -3.659287,0.44447 -1.347306,-1.71e-4 -1.498464,-0.01219 -2.176194,-0.173087 -1.340027,-0.318128 -2.20435,-0.771794 -3.054191,-1.603087 L 89.06794,95.320186 86.932789,98.54709 c -1.174334,1.7748 -2.517415,3.80436 -2.984625,4.51013 -0.467209,0.70578 -0.835001,1.30665 -0.817314,1.33527 0.06211,0.10049 0.15295,0.0495 0.411507,-0.23101 z"
       id="path2245" />
    <path
       id="path881"
       d="m 103.03306,96.676378 c -0.007,-0.0169 -0.0168,-0.168972 -0.0213,-0.337943 -0.006,-0.236004 -0.002,-0.345725 0.0206,-0.473314 0.0551,-0.317237 0.1976,-0.659119 0.37707,-0.904797 0.82437,-1.128432 2.75997,-1.576017 5.68962,-1.31566 0.2919,0.02594 0.9804,0.104062 1.11966,0.127044 l 0.0751,0.01239 -0.0681,0.140444 c -0.14476,0.298575 -0.29247,0.507867 -0.53751,0.761594 -0.67405,0.697937 -1.70268,1.212081 -3.14351,1.571245 -0.89186,0.222317 -1.96969,0.374727 -3.05467,0.431945 -0.44313,0.02337 -0.4415,0.02341 -0.45701,-0.01295 z m 0.79935,-0.137627 c 1.33402,-0.113719 2.63371,-0.3708 3.67462,-0.726849 1.14597,-0.391984 1.93757,-0.907435 2.3593,-1.536244 0.0733,-0.109314 0.20496,-0.359081 0.19468,-0.36936 -0.0198,-0.01977 -0.81883,-0.104207 -1.3186,-0.139346 -2.03838,-0.143315 -3.58606,0.106969 -4.51498,0.730143 -0.56458,0.378754 -0.88729,0.838006 -1.00919,1.436217 -0.0353,0.173313 -0.0477,0.479775 -0.0241,0.597702 l 0.0113,0.05653 0.15986,-0.0113 c 0.0879,-0.0062 0.29811,-0.02308 0.46709,-0.03749 z"
       style="fill:#80afff;fill-opacity:1;stroke:#d0ffff;stroke-width:0.0112134;stroke-miterlimit:4;stroke-dasharray:0, 0.123348;stroke-dashoffset:0.112134" />
    <path
       id="path887"
       d="m 105.80944,96.127041 c -0.0329,-0.01696 -0.15885,-0.103682 -0.21044,-0.144851 -0.0304,-0.02425 -0.0858,-0.07471 -0.12318,-0.112132 -0.19924,-0.199568 -0.31252,-0.431899 -0.3445,-0.70654 -0.0107,-0.09172 -0.007,-0.261691 0.007,-0.355928 0.0326,-0.211417 0.10398,-0.429298 0.20499,-0.626021 l 0.0326,-0.06352 0.0561,-0.01531 c 0.46491,-0.126909 1.00736,-0.206754 1.62557,-0.239275 0.22508,-0.01184 0.21664,-0.01239 0.27758,0.01817 0.21602,0.108368 0.39346,0.262076 0.51813,0.448832 0.0934,0.139967 0.16296,0.335242 0.18329,0.514789 0.0176,0.155443 0.008,0.327969 -0.0277,0.50543 -0.0151,0.07487 -0.0351,0.152419 -0.0406,0.157825 -0.006,0.006 -0.21912,0.08988 -0.34563,0.136141 -0.4794,0.175303 -1.07377,0.339843 -1.68298,0.465903 -0.10795,0.02234 -0.11702,0.02348 -0.13058,0.01649 z"
       style="fill:#000000;fill-opacity:1;stroke:#d0ffff;stroke-width:0.00335982;stroke-miterlimit:4;stroke-dasharray:none;stroke-dashoffset:6.68976" />
    <path
       id="path889"
       d="m 115.3624,120.11679 c -1.14643,-2.33544 -2.45685,-4.11948 -3.65261,-4.97275 -0.25811,-0.18419 -0.48641,-0.33489 -0.50732,-0.33489 -0.0209,0 -0.0225,0.14536 -0.004,0.32304 0.0292,0.27414 -0.01,0.39512 -0.25637,0.79925 -0.37429,0.61288 -1.41015,1.82969 -2.36573,2.779 l -0.75183,0.7469 -0.17124,-0.86091 c -0.46742,-2.35 -1.31687,-4.40365 -2.17742,-5.26421 -0.5627,-0.5627 -0.57817,-0.56343 -0.89978,-0.0424 -0.41523,0.67272 -1.50601,2.14772 -2.13339,2.88486 -0.97592,1.14666 -3.072404,3.07481 -3.202159,2.94505 -0.02089,-0.0209 0.10008,-0.59742 0.268824,-1.28118 0.691875,-2.80351 0.784715,-5.21581 0.255708,-6.6438 -0.18959,-0.51178 -0.345371,-0.5216 -0.865887,-0.0546 -1.002512,0.8994 -1.935157,1.56117 -2.841901,2.01648 -0.513509,0.25786 -1.326016,0.54173 -1.38415,0.4836 -0.01554,-0.0155 0.09626,-0.24071 0.24845,-0.50038 0.832961,-1.42123 1.571784,-3.23397 1.937404,-4.75352 0.281224,-1.16879 0.745272,-2.44193 1.022569,-2.80549 0.248919,-0.32635 0.949478,-0.84291 1.55828,-1.14901 0.880162,-0.44254 2.694262,-0.93216 3.952502,-1.06677 0.27173,-0.0291 0.53562,-0.0748 0.58641,-0.10165 0.10285,-0.0543 -4.201359,-6.819263 -4.414781,-6.9387 -0.08402,-0.04702 -0.416453,0.01881 -1.046978,0.207329 -0.508129,0.151923 -0.968457,0.293334 -1.022953,0.314247 -0.136463,0.05236 -0.06162,-0.404419 0.167584,-1.02283 0.74586,-2.012376 2.844868,-3.243727 6.452808,-3.785452 1.22372,-0.183739 3.36725,-0.186793 4.37055,-0.0062 2.66182,0.479054 5.08557,2.044173 6.72874,4.345033 0.60428,0.846138 1.22551,2.654881 1.5664,4.560583 0.16875,0.9434 0.17585,1.12918 0.15697,4.10452 -0.0109,1.71402 -0.0526,3.88599 -0.0928,4.82661 -0.0401,0.94062 -0.1073,2.79577 -0.14922,4.12256 -0.0717,2.27043 -0.20129,3.97458 -0.38248,5.03128 -0.16222,0.94603 -0.4001,2.01958 -0.44751,2.01958 -0.0269,0 -0.25337,-0.41632 -0.50315,-0.92515 z m -9.79832,-23.394117 c 2.68199,-0.486757 4.38116,-1.439433 4.93607,-2.767522 0.0625,-0.14949 0.11356,-0.301619 0.11356,-0.338066 0,-0.08938 -1.25878,-0.239572 -2.47031,-0.294755 -2.04786,-0.09328 -3.65773,0.281832 -4.563,1.063207 -0.58316,0.503344 -0.93194,1.434857 -0.82809,2.211626 l 0.0498,0.372372 0.96043,-0.0471 c 0.52824,-0.02591 1.33893,-0.115799 1.80155,-0.199758 z"
       style="fill:url(#linearGradient899);fill-opacity:1;stroke:#d0ffff;stroke-width:0.0508486;stroke-miterlimit:4;stroke-dasharray:0, 0.559335;stroke-dashoffset:0;stroke-opacity:1" />
    <circle
       r="0.42542765"
       cy="95.130547"
       cx="106.05613"
       id="path891"
       style="fill:#ffffff;fill-opacity:1;stroke:#d0ffff;stroke-width:0.0382266;stroke-miterlimit:4;stroke-dasharray:0, 0.420493;stroke-dashoffset:0" />
    <path
       id="path909"
       d="m 103.31864,96.440959 c -0.009,-0.0087 -0.005,-0.248409 0.006,-0.337393 0.0272,-0.232796 0.0905,-0.443713 0.19498,-0.64987 0.29794,-0.58796 0.88765,-1.022974 1.75039,-1.291203 0.045,-0.01399 0.0834,-0.02385 0.0853,-0.02192 0.002,0.0019 -0.0109,0.0322 -0.0285,0.06728 -0.0955,0.190129 -0.16815,0.424697 -0.19529,0.630461 -0.0144,0.108859 -0.009,0.329509 0.0105,0.422601 0.0336,0.161173 0.10308,0.322866 0.19353,0.450148 0.0557,0.07844 0.18242,0.211277 0.25899,0.271591 0.0303,0.02391 0.0882,0.06607 0.1285,0.0937 0.0419,0.02869 0.0692,0.05155 0.0637,0.0533 -0.0176,0.0056 -0.27027,0.05177 -0.45648,0.08341 -0.58838,0.09997 -1.26568,0.181261 -1.84975,0.222008 -0.17592,0.01227 -0.15599,0.01155 -0.16165,0.0059 z"
       style="fill:#ffffff;fill-opacity:1;stroke:#b6ffff;stroke-width:0.0432561;stroke-miterlimit:4;stroke-dasharray:0, 0.475817;stroke-dashoffset:0;stroke-opacity:1" />
    <path
       id="path911"
       d="m 107.98341,95.486613 c 0,-0.0016 0.006,-0.02888 0.0137,-0.06062 0.16103,-0.678674 -0.0605,-1.222192 -0.62334,-1.529451 l -0.0658,-0.03593 0.44684,0.0034 c 0.24577,0.0019 0.50765,0.0068 0.58195,0.01081 0.49968,0.02722 0.89416,0.06053 1.36825,0.115521 0.0876,0.01017 0.16048,0.01945 0.16187,0.02063 0.009,0.0075 -0.10457,0.188407 -0.18626,0.297303 -0.2264,0.30183 -0.54961,0.575698 -0.97322,0.824655 -0.13755,0.08083 -0.41775,0.223387 -0.58416,0.297188 -0.13455,0.05967 -0.13981,0.06179 -0.13981,0.05644 z"
       style="fill:#ffffff;fill-opacity:1;stroke:#b6ffff;stroke-width:0.0431939;stroke-miterlimit:4;stroke-dasharray:0, 0.475133;stroke-dashoffset:0;stroke-opacity:1" />
    <path
       style="fill:#ffe680;fill-opacity:1;stroke:#000000;stroke-width:0.0753737;stroke-miterlimit:4;stroke-dasharray:0, 0.829107;stroke-dashoffset:0;stroke-opacity:1"
       d="m 83.866398,45.302258 c 0.0067,-0.0185 1.185796,-1.80643 2.620187,-3.973244 l 2.607984,-3.939662 0.217631,0.236512 c 0.872267,0.947947 2.23123,1.617438 3.810623,1.877297 0.497513,0.08186 0.645714,0.09684 1.207713,0.122071 1.347101,0.06049 2.97202,-0.137368 4.501777,-0.548153 0.15523,-0.04169 0.290636,-0.06592 0.300901,-0.05386 0.109891,0.129107 3.458226,4.817249 3.447906,4.827559 -0.008,0.008 -0.37433,-0.047 -0.81479,-0.12146 -2.067686,-0.34965 -4.098485,-0.58566 -6.093892,-0.7082 -0.814471,-0.05 -3.343289,-0.0501 -4.040619,-1.2e-4 -2.025951,0.14522 -3.577116,0.42432 -4.994861,0.89873 -1.067798,0.35731 -1.900994,0.7773 -2.721938,1.37204 -0.03362,0.0243 -0.05537,0.029 -0.04862,0.0105 z"
       id="path959" />
    <path
       style="fill:#ffe680;fill-opacity:1;stroke:#000000;stroke-width:0.0754;stroke-miterlimit:4;stroke-dasharray:0, 0.829399;stroke-dashoffset:0;stroke-opacity:1"
       d="m 93.301743,45.812008 c -1.90252,-0.82581 -3.512804,-1.52435 -3.578408,-1.55233 l -0.119281,-0.0509 0.149101,-0.0234 c 0.225266,-0.0353 1.201916,-0.139 1.640103,-0.17414 1.828314,-0.14661 3.972876,-0.15223 5.859644,-0.0153 1.530326,0.11103 2.826298,0.2714 4.374118,0.54128 l 0.4698,0.0819 -0.49879,0.0828 c -1.46611,0.24334 -2.606112,0.698 -3.599626,1.43563 -0.323227,0.23998 -0.852349,0.76019 -1.028792,1.01147 -0.06561,0.0934 -0.139409,0.16864 -0.164011,0.16714 -0.0246,-0.002 -1.601338,-0.67839 -3.503858,-1.50419 z"
       id="path961" />
    <path
       style="fill:#d5f6ff;fill-opacity:1;stroke:#000000;stroke-width:0.0849113;stroke-miterlimit:4;stroke-dasharray:0, 0.934026;stroke-dashoffset:0;stroke-opacity:1"
       d="m 116.46238,67.807738 c -0.10334,-0.44874 -0.82604,-2.55133 -1.19229,-3.46877 -0.66222,-1.65887 -1.29645,-2.99426 -2.14226,-4.51063 -0.4594,-0.82363 -1.39074,-2.28552 -1.42926,-2.24349 -0.0118,0.0129 -0.18123,0.33049 -0.37649,0.70582 -1.22414,2.35296 -2.97367,4.44184 -4.89723,5.84712 -0.34775,0.25406 -0.37613,0.2643 -0.34214,0.12343 0.16177,-0.67045 0.20004,-1.11482 0.19612,-2.27716 -0.005,-1.41568 -0.12627,-2.43639 -0.46897,-3.9401 -0.18495,-0.81149 -0.60628,-2.27317 -0.70728,-2.45363 -0.0371,-0.0662 -0.14076,0.0789 -0.36055,0.50441 -1.36141,2.63595 -4.16424,5.69553 -7.49396,8.18044 -0.925998,0.69106 -2.509492,1.75237 -2.551654,1.71021 -0.0174,-0.0174 0.116918,-0.21535 0.298478,-0.4399 1.880461,-2.32572 3.35598,-5.59433 3.984683,-8.82699 0.259029,-1.33188 0.470728,-3.33169 0.351393,-3.31942 -0.03073,0.003 -0.231564,0.2131 -0.446296,0.46653 -1.486027,1.75389 -4.149589,3.04492 -7.452624,3.61231 -0.925357,0.15895 -0.954646,0.14351 -0.415238,-0.21895 1.130387,-0.75956 2.358162,-2.21103 3.583934,-4.23691 1.206277,-1.99366 2.53788,-4.98901 2.311112,-5.19869 -0.04514,-0.0417 -1.911829,-0.8638 -4.148208,-1.82682 l -4.066143,-1.75094 -0.502709,0.0742 c -1.485017,0.21928 -3.533946,1.25839 -5.312874,2.69442 -0.309684,0.24999 -0.563062,0.43897 -0.563062,0.41996 0,-0.0355 6.239027,-11.809577 6.286624,-11.863883 0.01456,-0.01662 0.101713,0.06592 0.193665,0.183411 0.30183,0.385668 1.453283,1.361958 2.175747,1.844764 1.150428,0.768807 2.190169,1.201793 3.374368,1.40521 0.61776,0.106116 1.700768,0.132126 2.153405,0.05172 l 0.252028,-0.04477 0.108664,-0.643282 c 0.367811,-2.177393 1.765404,-3.633154 4.193097,-4.367615 1.9609,-0.59324 3.24299,-0.776015 5.45801,-0.778092 1.47882,-0.0014 1.80783,0.01706 2.47748,0.138881 1.61961,0.294643 2.45086,0.664091 3.79285,1.685733 1.72481,1.313083 2.57928,2.269296 3.25542,3.643062 0.56071,1.139231 0.9751,2.525754 1.18279,3.957531 0.39719,2.73815 0.2759,9.73547 -0.32124,18.53281 -0.0564,0.83172 -0.16674,2.71396 -0.24508,4.18275 -0.0954,1.78799 -0.15958,2.5961 -0.19431,2.4453 z m -0.2733,-5.13191 c 0.46431,-1.88269 0.66229,-3.59681 0.75251,-6.51545 0.0345,-1.11486 0.10497,-3.04053 0.15667,-4.27927 0.12273,-2.94039 0.14475,-7.91436 0.0383,-8.65508 -0.30116,-2.095916 -0.98967,-4.24519 -1.67787,-5.237686 -1.21571,-1.753264 -2.98898,-3.145225 -5.04962,-3.963798 -1.9301,-0.766717 -4.76638,-0.87113 -7.59474,-0.279587 -2.52652,0.528413 -4.147417,1.4872 -5.069422,2.998653 -0.425774,0.697977 -0.755028,2.043162 -0.521983,2.132591 0.05671,0.02176 0.581265,-0.106889 1.165684,-0.285887 0.584419,-0.178999 1.068515,-0.316815 1.075769,-0.306259 0.201297,0.292937 4.154322,6.479933 4.154322,6.502053 0,0.0176 -0.18098,0.0523 -0.40219,0.077 -1.69459,0.18948 -3.663095,0.82357 -4.657266,1.50019 -0.425631,0.28967 -0.989815,0.86054 -1.132306,1.14572 -0.176782,0.3538 -0.678386,1.92365 -0.874288,2.73622 -0.338407,1.40366 -0.974348,2.93123 -1.870653,4.49341 -0.287512,0.50112 -0.522749,0.92864 -0.522749,0.95005 0,0.0776 0.731887,-0.0496 1.227162,-0.21329 0.956336,-0.31607 2.15681,-1.0676 3.397826,-2.12713 0.702047,-0.59938 0.656874,-0.60668 0.863369,0.13947 0.182265,0.65859 0.224145,2.48848 0.08179,3.57352 -0.137434,1.04749 -0.486047,2.65325 -0.799817,3.68404 -0.13736,0.45125 -0.234872,0.82046 -0.216693,0.82046 0.08937,0 1.199591,-0.78744 1.685195,-1.19525 1.24608,-1.04646 2.83131,-2.85889 3.97171,-4.54098 0.30855,-0.45511 0.57816,-0.82748 0.59914,-0.82748 0.0725,0 0.62733,0.61247 0.83513,0.92193 0.65138,0.97002 1.35621,3.07465 1.71162,5.11089 0.0633,0.36277 0.13499,0.65959 0.15926,0.65959 0.0243,0 0.59145,-0.55743 1.2604,-1.23874 1.26508,-1.28845 2.16409,-2.39841 2.41807,-2.98543 0.0815,-0.18837 0.16724,-0.34298 0.19054,-0.34359 0.0233,-5.7e-4 0.19704,0.12495 0.3861,0.27899 0.59676,0.48626 1.37454,1.44218 2.08794,2.56614 0.42838,0.67491 1.34048,2.43742 1.66572,3.21877 0.0994,0.2389 0.20116,0.43436 0.22604,0.43436 0.0249,0 0.15057,-0.42712 0.27931,-0.94916 z M 97.5975,46.794098 c 1.085265,-1.0829 2.60667,-1.74717 4.5077,-1.96815 0.55632,-0.0647 0.67829,-0.0977 0.66255,-0.1794 -0.0222,-0.11555 -0.56324,-0.23071 -2.27,-0.48321 -2.470086,-0.36544 -5.18136,-0.51254 -7.67343,-0.41633 -1.259295,0.0486 -2.862492,0.18589 -3.373316,0.28885 -0.297775,0.06 -0.272373,0.20502 0.0613,0.34991 7.853823,3.41036 7.374613,3.21385 7.473875,3.06474 0.05062,-0.076 0.325714,-0.37143 0.611325,-0.65641 z m -14.055143,-0.89101 c 0.556821,-0.60408 1.773809,-1.30495 3.02646,-1.74294 2.795123,-0.97734 6.636184,-1.23916 11.290577,-0.76961 1.102409,0.11122 3.281846,0.4172 4.278976,0.60074 0.50375,0.0927 0.68746,0.10532 0.7229,0.0496 0.0261,-0.0411 0.0407,-0.0943 0.0325,-0.11817 -0.04,-0.11533 -3.628237,-5.068122 -3.691659,-5.095513 -0.04016,-0.01735 -0.344213,0.03788 -0.675676,0.12273 -1.397428,0.357705 -2.113359,0.444664 -3.659287,0.44447 -1.347306,-1.71e-4 -1.498464,-0.01219 -2.176194,-0.173087 -1.340027,-0.318128 -2.20435,-0.771794 -3.054191,-1.603087 l -0.568823,-0.556427 -2.135151,3.226904 c -1.174334,1.7748 -2.517415,3.80436 -2.984625,4.51013 -0.467209,0.70578 -0.835001,1.30665 -0.817314,1.33527 0.06211,0.10049 0.15295,0.0495 0.411507,-0.23101 z"
       id="path963" />
    <path
       id="path965"
       d="m 103.03306,38.417986 c -0.007,-0.0169 -0.0168,-0.168972 -0.0213,-0.337943 -0.006,-0.236004 -0.002,-0.345725 0.0206,-0.473314 0.0551,-0.317237 0.1976,-0.659119 0.37707,-0.904797 0.82437,-1.128432 2.75997,-1.576017 5.68962,-1.31566 0.2919,0.02594 0.9804,0.104062 1.11966,0.127044 l 0.0751,0.01239 -0.0681,0.140444 c -0.14476,0.298575 -0.29247,0.507867 -0.53751,0.761594 -0.67405,0.697937 -1.70268,1.212081 -3.14351,1.571245 -0.89186,0.222317 -1.96969,0.374727 -3.05467,0.431945 -0.44313,0.02337 -0.4415,0.02341 -0.45701,-0.01295 z m 0.79935,-0.137627 c 1.33402,-0.113719 2.63371,-0.3708 3.67462,-0.726849 1.14597,-0.391984 1.93757,-0.907435 2.3593,-1.536244 0.0733,-0.109314 0.20496,-0.359081 0.19468,-0.36936 -0.0198,-0.01977 -0.81883,-0.104207 -1.3186,-0.139346 -2.03838,-0.143315 -3.58606,0.106969 -4.51498,0.730143 -0.56458,0.378754 -0.88729,0.838006 -1.00919,1.436217 -0.0353,0.173313 -0.0477,0.479775 -0.0241,0.597702 l 0.0113,0.05653 0.15986,-0.0113 c 0.0879,-0.0062 0.29811,-0.02308 0.46709,-0.03749 z"
       style="fill:#80afff;fill-opacity:1;stroke:#d0ffff;stroke-width:0.0112134;stroke-miterlimit:4;stroke-dasharray:0, 0.123348;stroke-dashoffset:0.112134" />
    <path
       id="path967"
       d="m 105.80944,37.868649 c -0.0329,-0.01696 -0.15885,-0.103682 -0.21044,-0.144851 -0.0304,-0.02425 -0.0858,-0.07471 -0.12318,-0.112132 -0.19924,-0.199568 -0.31252,-0.431899 -0.3445,-0.70654 -0.0107,-0.09172 -0.007,-0.261691 0.007,-0.355928 0.0326,-0.211417 0.10398,-0.429298 0.20499,-0.626021 l 0.0326,-0.06352 0.0561,-0.01531 c 0.46491,-0.126909 1.00736,-0.206754 1.62557,-0.239275 0.22508,-0.01184 0.21664,-0.01239 0.27758,0.01817 0.21602,0.108368 0.39346,0.262076 0.51813,0.448832 0.0934,0.139967 0.16296,0.335242 0.18329,0.514789 0.0176,0.155443 0.008,0.327969 -0.0277,0.50543 -0.0151,0.07487 -0.0351,0.152419 -0.0406,0.157825 -0.006,0.006 -0.21912,0.08988 -0.34563,0.136141 -0.4794,0.175303 -1.07377,0.339843 -1.68298,0.465903 -0.10795,0.02234 -0.11702,0.02348 -0.13058,0.01649 z"
       style="fill:#000000;fill-opacity:1;stroke:#d0ffff;stroke-width:0.00335982;stroke-miterlimit:4;stroke-dasharray:none;stroke-dashoffset:6.68976" />
    <path
       id="path969"
       d="m 115.3624,61.858398 c -1.14643,-2.33544 -2.45685,-4.11948 -3.65261,-4.97275 -0.25811,-0.18419 -0.48641,-0.33489 -0.50732,-0.33489 -0.0209,0 -0.0225,0.14536 -0.004,0.32304 0.0292,0.27414 -0.01,0.39512 -0.25637,0.79925 -0.37429,0.61288 -1.41015,1.82969 -2.36573,2.779 l -0.75183,0.7469 -0.17124,-0.86091 c -0.46742,-2.35 -1.31687,-4.40365 -2.17742,-5.26421 -0.5627,-0.5627 -0.57817,-0.56343 -0.89978,-0.0424 -0.41523,0.67272 -1.50601,2.14772 -2.13339,2.88486 -0.97592,1.14666 -3.072404,3.07481 -3.202159,2.94505 -0.02089,-0.0209 0.10008,-0.59742 0.268824,-1.28118 0.691875,-2.80351 0.784715,-5.21581 0.255708,-6.6438 -0.18959,-0.51178 -0.345371,-0.5216 -0.865887,-0.0546 -1.002512,0.8994 -1.935157,1.56117 -2.841901,2.01648 -0.513509,0.25786 -1.326016,0.54173 -1.38415,0.4836 -0.01554,-0.0155 0.09626,-0.24071 0.24845,-0.50038 0.832961,-1.42123 1.571784,-3.23397 1.937404,-4.75352 0.281224,-1.16879 0.745272,-2.44193 1.022569,-2.80549 0.248919,-0.32635 0.949478,-0.84291 1.55828,-1.14901 0.880162,-0.44254 2.694262,-0.93216 3.952502,-1.06677 0.27173,-0.0291 0.53562,-0.0748 0.58641,-0.10165 0.10285,-0.0543 -4.201359,-6.819263 -4.414781,-6.9387 -0.08402,-0.04702 -0.416453,0.01881 -1.046978,0.207329 -0.508129,0.151923 -0.968457,0.293334 -1.022953,0.314247 -0.136463,0.05236 -0.06162,-0.404419 0.167584,-1.02283 0.74586,-2.012376 2.844868,-3.243727 6.452808,-3.785452 1.22372,-0.183739 3.36725,-0.186793 4.37055,-0.0062 2.66182,0.479054 5.08557,2.044173 6.72874,4.345033 0.60428,0.846138 1.22551,2.654881 1.5664,4.560583 0.16875,0.9434 0.17585,1.12918 0.15697,4.10452 -0.0109,1.71402 -0.0526,3.88599 -0.0928,4.82661 -0.0401,0.94062 -0.1073,2.79577 -0.14922,4.12256 -0.0717,2.27043 -0.20129,3.97458 -0.38248,5.03128 -0.16222,0.94603 -0.4001,2.01958 -0.44751,2.01958 -0.0269,0 -0.25337,-0.41632 -0.50315,-0.92515 z m -9.79832,-23.394117 c 2.68199,-0.486757 4.38116,-1.439433 4.93607,-2.767522 0.0625,-0.14949 0.11356,-0.301619 0.11356,-0.338066 0,-0.08938 -1.25878,-0.239572 -2.47031,-0.294755 -2.04786,-0.09328 -3.65773,0.281832 -4.563,1.063207 -0.58316,0.503344 -0.93194,1.434857 -0.82809,2.211626 l 0.0498,0.372372 0.96043,-0.0471 c 0.52824,-0.02591 1.33893,-0.115799 1.80155,-0.199758 z"
       style="fill:url(#linearGradient977);fill-opacity:1;stroke:#d0ffff;stroke-width:0.0508486;stroke-miterlimit:4;stroke-dasharray:0, 0.559335;stroke-dashoffset:0;stroke-opacity:1" />
    <circle
       r="0.42542765"
       cy="36.872154"
       cx="106.05613"
       id="circle971"
       style="fill:#ffffff;fill-opacity:1;stroke:#d0ffff;stroke-width:0.0382266;stroke-miterlimit:4;stroke-dasharray:0, 0.420493;stroke-dashoffset:0" />
    <path
       id="path973"
       d="m 103.31864,38.182567 c -0.009,-0.0087 -0.005,-0.248409 0.006,-0.337393 0.0272,-0.232796 0.0905,-0.443713 0.19498,-0.64987 0.29794,-0.58796 0.88765,-1.022974 1.75039,-1.291203 0.045,-0.01399 0.0834,-0.02385 0.0853,-0.02192 0.002,0.0019 -0.0109,0.0322 -0.0285,0.06728 -0.0955,0.190129 -0.16815,0.424697 -0.19529,0.630461 -0.0144,0.108859 -0.009,0.329509 0.0105,0.422601 0.0336,0.161173 0.10308,0.322866 0.19353,0.450148 0.0557,0.07844 0.18242,0.211277 0.25899,0.271591 0.0303,0.02391 0.0882,0.06607 0.1285,0.0937 0.0419,0.02869 0.0692,0.05155 0.0637,0.0533 -0.0176,0.0056 -0.27027,0.05177 -0.45648,0.08341 -0.58838,0.09997 -1.26568,0.181261 -1.84975,0.222008 -0.17592,0.01227 -0.15599,0.01155 -0.16165,0.0059 z"
       style="fill:#ffffff;fill-opacity:1;stroke:#b6ffff;stroke-width:0.0432561;stroke-miterlimit:4;stroke-dasharray:0, 0.475817;stroke-dashoffset:0;stroke-opacity:1" />
    <path
       id="path975"
       d="m 107.98341,37.228221 c 0,-0.0016 0.006,-0.02888 0.0137,-0.06062 0.16103,-0.678674 -0.0605,-1.222192 -0.62334,-1.529451 l -0.0658,-0.03593 0.44684,0.0034 c 0.24577,0.0019 0.50765,0.0068 0.58195,0.01081 0.49968,0.02722 0.89416,0.06053 1.36825,0.115521 0.0876,0.01017 0.16048,0.01945 0.16187,0.02063 0.009,0.0075 -0.10457,0.188407 -0.18626,0.297303 -0.2264,0.30183 -0.54961,0.575698 -0.97322,0.824655 -0.13755,0.08083 -0.41775,0.223387 -0.58416,0.297188 -0.13455,0.05967 -0.13981,0.06179 -0.13981,0.05644 z"
       style="fill:#ffffff;fill-opacity:1;stroke:#b6ffff;stroke-width:0.0431939;stroke-miterlimit:4;stroke-dasharray:0, 0.475133;stroke-dashoffset:0;stroke-opacity:1" />
    <path
       style="fill:#ffe680;fill-opacity:1;stroke:#000000;stroke-width:0.0753737;stroke-miterlimit:4;stroke-dasharray:0, 0.829107;stroke-dashoffset:0;stroke-opacity:1"
       d="m 83.866398,162.68455 c 0.0067,-0.0185 1.185796,-1.80643 2.620187,-3.97324 l 2.607984,-3.93966 0.217631,0.23651 c 0.872267,0.94795 2.23123,1.61744 3.810623,1.8773 0.497513,0.0819 0.645714,0.0968 1.207713,0.12207 1.347101,0.0605 2.97202,-0.13737 4.501777,-0.54815 0.15523,-0.0417 0.290636,-0.0659 0.300901,-0.0539 0.109891,0.1291 3.458226,4.81724 3.447906,4.82755 -0.008,0.008 -0.37433,-0.047 -0.81479,-0.12146 -2.067686,-0.34965 -4.098485,-0.58566 -6.093892,-0.7082 -0.814471,-0.05 -3.343289,-0.0501 -4.040619,-1.2e-4 -2.025951,0.14522 -3.577116,0.42432 -4.994861,0.89873 -1.067798,0.35731 -1.900994,0.7773 -2.721938,1.37204 -0.03362,0.0243 -0.05537,0.029 -0.04862,0.0105 z"
       id="path995" />
    <path
       style="fill:#ffe680;fill-opacity:1;stroke:#000000;stroke-width:0.0754;stroke-miterlimit:4;stroke-dasharray:0, 0.829399;stroke-dashoffset:0;stroke-opacity:1"
       d="m 93.301743,163.1943 c -1.90252,-0.82581 -3.512804,-1.52435 -3.578408,-1.55233 l -0.119281,-0.0509 0.149101,-0.0234 c 0.225266,-0.0353 1.201916,-0.139 1.640103,-0.17414 1.828314,-0.14661 3.972876,-0.15223 5.859644,-0.0153 1.530326,0.11103 2.826298,0.2714 4.374118,0.54128 l 0.4698,0.0819 -0.49879,0.0828 c -1.46611,0.24334 -2.606112,0.698 -3.599626,1.43563 -0.323227,0.23998 -0.852349,0.76019 -1.028792,1.01147 -0.06561,0.0934 -0.139409,0.16864 -0.164011,0.16714 -0.0246,-0.002 -1.601338,-0.67839 -3.503858,-1.50419 z"
       id="path997" />
    <path
       style="fill:#d5f6ff;fill-opacity:1;stroke:#000000;stroke-width:0.0849113;stroke-miterlimit:4;stroke-dasharray:0, 0.934026;stroke-dashoffset:0;stroke-opacity:1"
       d="m 116.46238,185.19003 c -0.10334,-0.44874 -0.82604,-2.55133 -1.19229,-3.46877 -0.66222,-1.65887 -1.29645,-2.99426 -2.14226,-4.51063 -0.4594,-0.82363 -1.39074,-2.28552 -1.42926,-2.24349 -0.0118,0.0129 -0.18123,0.33049 -0.37649,0.70582 -1.22414,2.35296 -2.97367,4.44184 -4.89723,5.84712 -0.34775,0.25406 -0.37613,0.2643 -0.34214,0.12343 0.16177,-0.67045 0.20004,-1.11482 0.19612,-2.27716 -0.005,-1.41568 -0.12627,-2.43639 -0.46897,-3.9401 -0.18495,-0.81149 -0.60628,-2.27317 -0.70728,-2.45363 -0.0371,-0.0662 -0.14076,0.0789 -0.36055,0.50441 -1.36141,2.63595 -4.16424,5.69553 -7.49396,8.18044 -0.925998,0.69106 -2.509492,1.75237 -2.551654,1.71021 -0.0174,-0.0174 0.116918,-0.21535 0.298478,-0.4399 1.880461,-2.32572 3.35598,-5.59433 3.984683,-8.82699 0.259029,-1.33188 0.470728,-3.33169 0.351393,-3.31942 -0.03073,0.003 -0.231564,0.2131 -0.446296,0.46653 -1.486027,1.75389 -4.149589,3.04492 -7.452624,3.61231 -0.925357,0.15895 -0.954646,0.14351 -0.415238,-0.21895 1.130387,-0.75956 2.358162,-2.21103 3.583934,-4.23691 1.206277,-1.99366 2.53788,-4.98901 2.311112,-5.19869 -0.04514,-0.0417 -1.911829,-0.8638 -4.148208,-1.82682 l -4.066143,-1.75094 -0.502709,0.0742 c -1.485017,0.21928 -3.533946,1.25839 -5.312874,2.69442 -0.309684,0.24999 -0.563062,0.43897 -0.563062,0.41996 0,-0.0355 6.239027,-11.80957 6.286624,-11.86388 0.01456,-0.0166 0.101713,0.0659 0.193665,0.18341 0.30183,0.38567 1.453283,1.36196 2.175747,1.84477 1.150428,0.7688 2.190169,1.20179 3.374368,1.40521 0.61776,0.10611 1.700768,0.13212 2.153405,0.0517 l 0.252028,-0.0448 0.108664,-0.64329 c 0.367811,-2.17739 1.765404,-3.63315 4.193097,-4.36761 1.9609,-0.59324 3.24299,-0.77602 5.45801,-0.77809 1.47882,-0.001 1.80783,0.0171 2.47748,0.13888 1.61961,0.29464 2.45086,0.66409 3.79285,1.68573 1.72481,1.31308 2.57928,2.2693 3.25542,3.64306 0.56071,1.13923 0.9751,2.52576 1.18279,3.95753 0.39719,2.73815 0.2759,9.73547 -0.32124,18.53281 -0.0564,0.83172 -0.16674,2.71396 -0.24508,4.18275 -0.0954,1.78799 -0.15958,2.5961 -0.19431,2.4453 z m -0.2733,-5.13191 c 0.46431,-1.88269 0.66229,-3.59681 0.75251,-6.51545 0.0345,-1.11486 0.10497,-3.04053 0.15667,-4.27927 0.12273,-2.94039 0.14475,-7.91436 0.0383,-8.65508 -0.30116,-2.09591 -0.98967,-4.24519 -1.67787,-5.23768 -1.21571,-1.75327 -2.98898,-3.14523 -5.04962,-3.9638 -1.9301,-0.76672 -4.76638,-0.87113 -7.59474,-0.27959 -2.52652,0.52842 -4.147417,1.4872 -5.069422,2.99866 -0.425774,0.69797 -0.755028,2.04316 -0.521983,2.13259 0.05671,0.0218 0.581265,-0.10689 1.165684,-0.28589 0.584419,-0.179 1.068515,-0.31681 1.075769,-0.30626 0.201297,0.29294 4.154322,6.47993 4.154322,6.50205 0,0.0176 -0.18098,0.0523 -0.40219,0.077 -1.69459,0.18948 -3.663095,0.82357 -4.657266,1.50019 -0.425631,0.28967 -0.989815,0.86054 -1.132306,1.14572 -0.176782,0.3538 -0.678386,1.92365 -0.874288,2.73622 -0.338407,1.40366 -0.974348,2.93123 -1.870653,4.49341 -0.287512,0.50112 -0.522749,0.92864 -0.522749,0.95005 0,0.0776 0.731887,-0.0496 1.227162,-0.21329 0.956336,-0.31607 2.15681,-1.0676 3.397826,-2.12713 0.702047,-0.59938 0.656874,-0.60668 0.863369,0.13947 0.182265,0.65859 0.224145,2.48848 0.08179,3.57352 -0.137434,1.04749 -0.486047,2.65325 -0.799817,3.68404 -0.13736,0.45125 -0.234872,0.82046 -0.216693,0.82046 0.08937,0 1.199591,-0.78744 1.685195,-1.19525 1.24608,-1.04646 2.83131,-2.85889 3.97171,-4.54098 0.30855,-0.45511 0.57816,-0.82748 0.59914,-0.82748 0.0725,0 0.62733,0.61247 0.83513,0.92193 0.65138,0.97002 1.35621,3.07465 1.71162,5.11089 0.0633,0.36277 0.13499,0.65959 0.15926,0.65959 0.0243,0 0.59145,-0.55743 1.2604,-1.23874 1.26508,-1.28845 2.16409,-2.39841 2.41807,-2.98543 0.0815,-0.18837 0.16724,-0.34298 0.19054,-0.34359 0.0233,-5.7e-4 0.19704,0.12495 0.3861,0.27899 0.59676,0.48626 1.37454,1.44218 2.08794,2.56614 0.42838,0.67491 1.34048,2.43742 1.66572,3.21877 0.0994,0.2389 0.20116,0.43436 0.22604,0.43436 0.0249,0 0.15057,-0.42712 0.27931,-0.94916 z M 97.5975,164.17639 c 1.085265,-1.0829 2.60667,-1.74717 4.5077,-1.96815 0.55632,-0.0647 0.67829,-0.0977 0.66255,-0.1794 -0.0222,-0.11555 -0.56324,-0.23071 -2.27,-0.48321 -2.470086,-0.36544 -5.18136,-0.51254 -7.67343,-0.41633 -1.259295,0.0486 -2.862492,0.18589 -3.373316,0.28885 -0.297775,0.06 -0.272373,0.20502 0.0613,0.34991 7.853823,3.41036 7.374613,3.21385 7.473875,3.06474 0.05062,-0.076 0.325714,-0.37143 0.611325,-0.65641 z m -14.055143,-0.89101 c 0.556821,-0.60408 1.773809,-1.30495 3.02646,-1.74294 2.795123,-0.97734 6.636184,-1.23916 11.290577,-0.76961 1.102409,0.11122 3.281846,0.4172 4.278976,0.60074 0.50375,0.0927 0.68746,0.10532 0.7229,0.0496 0.0261,-0.0411 0.0407,-0.0943 0.0325,-0.11817 -0.04,-0.11533 -3.628237,-5.06812 -3.691659,-5.09551 -0.04016,-0.0173 -0.344213,0.0379 -0.675676,0.12273 -1.397428,0.35771 -2.113359,0.44467 -3.659287,0.44447 -1.347306,-1.7e-4 -1.498464,-0.0122 -2.176194,-0.17309 -1.340027,-0.31812 -2.20435,-0.77179 -3.054191,-1.60308 l -0.568823,-0.55643 -2.135151,3.2269 c -1.174334,1.7748 -2.517415,3.80436 -2.984625,4.51013 -0.467209,0.70578 -0.835001,1.30665 -0.817314,1.33527 0.06211,0.10049 0.15295,0.0495 0.411507,-0.23101 z"
       id="path999" />
    <path
       id="path1001"
       d="m 103.03306,155.80028 c -0.007,-0.0169 -0.0168,-0.16897 -0.0213,-0.33794 -0.006,-0.236 -0.002,-0.34573 0.0206,-0.47331 0.0551,-0.31724 0.1976,-0.65912 0.37707,-0.9048 0.82437,-1.12843 2.75997,-1.57602 5.68962,-1.31566 0.2919,0.0259 0.9804,0.10406 1.11966,0.12704 l 0.0751,0.0124 -0.0681,0.14045 c -0.14476,0.29857 -0.29247,0.50786 -0.53751,0.76159 -0.67405,0.69794 -1.70268,1.21208 -3.14351,1.57125 -0.89186,0.22231 -1.96969,0.37472 -3.05467,0.43194 -0.44313,0.0234 -0.4415,0.0234 -0.45701,-0.0129 z m 0.79935,-0.13762 c 1.33402,-0.11372 2.63371,-0.3708 3.67462,-0.72685 1.14597,-0.39199 1.93757,-0.90744 2.3593,-1.53625 0.0733,-0.10931 0.20496,-0.35908 0.19468,-0.36936 -0.0198,-0.0198 -0.81883,-0.1042 -1.3186,-0.13934 -2.03838,-0.14332 -3.58606,0.10697 -4.51498,0.73014 -0.56458,0.37875 -0.88729,0.83801 -1.00919,1.43622 -0.0353,0.17331 -0.0477,0.47977 -0.0241,0.5977 l 0.0113,0.0565 0.15986,-0.0113 c 0.0879,-0.006 0.29811,-0.0231 0.46709,-0.0375 z"
       style="fill:#80afff;fill-opacity:1;stroke:#d0ffff;stroke-width:0.0112134;stroke-miterlimit:4;stroke-dasharray:0, 0.123348;stroke-dashoffset:0.112134" />
    <path
       id="path1003"
       d="m 105.80944,155.25095 c -0.0329,-0.017 -0.15885,-0.10369 -0.21044,-0.14486 -0.0304,-0.0243 -0.0858,-0.0747 -0.12318,-0.11213 -0.19924,-0.19957 -0.31252,-0.4319 -0.3445,-0.70654 -0.0107,-0.0917 -0.007,-0.26169 0.007,-0.35593 0.0326,-0.21141 0.10398,-0.42929 0.20499,-0.62602 l 0.0326,-0.0635 0.0561,-0.0153 c 0.46491,-0.12691 1.00736,-0.20675 1.62557,-0.23927 0.22508,-0.0118 0.21664,-0.0124 0.27758,0.0182 0.21602,0.10837 0.39346,0.26207 0.51813,0.44883 0.0934,0.13997 0.16296,0.33524 0.18329,0.51479 0.0176,0.15544 0.008,0.32797 -0.0277,0.50543 -0.0151,0.0749 -0.0351,0.15242 -0.0406,0.15782 -0.006,0.006 -0.21912,0.0899 -0.34563,0.13615 -0.4794,0.1753 -1.07377,0.33984 -1.68298,0.4659 -0.10795,0.0223 -0.11702,0.0235 -0.13058,0.0165 z"
       style="fill:#000000;fill-opacity:1;stroke:#d0ffff;stroke-width:0.00335982;stroke-miterlimit:4;stroke-dasharray:none;stroke-dashoffset:6.68976" />
    <path
       id="path1005"
       d="m 115.3624,179.24069 c -1.14643,-2.33544 -2.45685,-4.11948 -3.65261,-4.97275 -0.25811,-0.18419 -0.48641,-0.33489 -0.50732,-0.33489 -0.0209,0 -0.0225,0.14536 -0.004,0.32304 0.0292,0.27414 -0.01,0.39512 -0.25637,0.79925 -0.37429,0.61288 -1.41015,1.82969 -2.36573,2.779 l -0.75183,0.7469 -0.17124,-0.86091 c -0.46742,-2.35 -1.31687,-4.40365 -2.17742,-5.26421 -0.5627,-0.5627 -0.57817,-0.56343 -0.89978,-0.0424 -0.41523,0.67272 -1.50601,2.14772 -2.13339,2.88486 -0.97592,1.14666 -3.072404,3.07481 -3.202159,2.94505 -0.02089,-0.0209 0.10008,-0.59742 0.268824,-1.28118 0.691875,-2.80351 0.784715,-5.21581 0.255708,-6.6438 -0.18959,-0.51178 -0.345371,-0.5216 -0.865887,-0.0546 -1.002512,0.8994 -1.935157,1.56117 -2.841901,2.01648 -0.513509,0.25786 -1.326016,0.54173 -1.38415,0.4836 -0.01554,-0.0155 0.09626,-0.24071 0.24845,-0.50038 0.832961,-1.42123 1.571784,-3.23397 1.937404,-4.75352 0.281224,-1.16879 0.745272,-2.44193 1.022569,-2.80549 0.248919,-0.32635 0.949478,-0.84291 1.55828,-1.14901 0.880162,-0.44254 2.694262,-0.93216 3.952502,-1.06677 0.27173,-0.0291 0.53562,-0.0748 0.58641,-0.10165 0.10285,-0.0543 -4.201359,-6.81926 -4.414781,-6.9387 -0.08402,-0.047 -0.416453,0.0188 -1.046978,0.20733 -0.508129,0.15193 -0.968457,0.29334 -1.022953,0.31425 -0.136463,0.0524 -0.06162,-0.40442 0.167584,-1.02283 0.74586,-2.01238 2.844868,-3.24373 6.452808,-3.78545 1.22372,-0.18374 3.36725,-0.18679 4.37055,-0.006 2.66182,0.47905 5.08557,2.04417 6.72874,4.34503 0.60428,0.84614 1.22551,2.65488 1.5664,4.56058 0.16875,0.9434 0.17585,1.12918 0.15697,4.10452 -0.0109,1.71402 -0.0526,3.88599 -0.0928,4.82661 -0.0401,0.94062 -0.1073,2.79577 -0.14922,4.12256 -0.0717,2.27043 -0.20129,3.97458 -0.38248,5.03128 -0.16222,0.94603 -0.4001,2.01958 -0.44751,2.01958 -0.0269,0 -0.25337,-0.41632 -0.50315,-0.92515 z m -9.79832,-23.39411 c 2.68199,-0.48676 4.38116,-1.43944 4.93607,-2.76752 0.0625,-0.14949 0.11356,-0.30162 0.11356,-0.33807 0,-0.0894 -1.25878,-0.23957 -2.47031,-0.29476 -2.04786,-0.0933 -3.65773,0.28184 -4.563,1.06321 -0.58316,0.50335 -0.93194,1.43486 -0.82809,2.21163 l 0.0498,0.37237 0.96043,-0.0471 c 0.52824,-0.0259 1.33893,-0.1158 1.80155,-0.19976 z"
       style="fill:url(#linearGradient1013);fill-opacity:1;stroke:#d0ffff;stroke-width:0.0508486;stroke-miterlimit:4;stroke-dasharray:0, 0.559335;stroke-dashoffset:0;stroke-opacity:1" />
    <circle
       r="0.42542765"
       cy="154.25446"
       cx="106.05613"
       id="circle1007"
       style="fill:#ffffff;fill-opacity:1;stroke:#d0ffff;stroke-width:0.0382266;stroke-miterlimit:4;stroke-dasharray:0, 0.420493;stroke-dashoffset:0" />
    <path
       id="path1009"
       d="m 103.31864,155.56486 c -0.009,-0.009 -0.005,-0.24841 0.006,-0.33739 0.0272,-0.2328 0.0905,-0.44371 0.19498,-0.64987 0.29794,-0.58796 0.88765,-1.02297 1.75039,-1.2912 0.045,-0.014 0.0834,-0.0239 0.0853,-0.0219 0.002,0.002 -0.0109,0.0322 -0.0285,0.0673 -0.0955,0.19013 -0.16815,0.42469 -0.19529,0.63046 -0.0144,0.10886 -0.009,0.32951 0.0105,0.4226 0.0336,0.16117 0.10308,0.32287 0.19353,0.45015 0.0557,0.0784 0.18242,0.21127 0.25899,0.27159 0.0303,0.0239 0.0882,0.0661 0.1285,0.0937 0.0419,0.0287 0.0692,0.0515 0.0637,0.0533 -0.0176,0.006 -0.27027,0.0518 -0.45648,0.0834 -0.58838,0.1 -1.26568,0.18126 -1.84975,0.22201 -0.17592,0.0123 -0.15599,0.0115 -0.16165,0.006 z"
       style="fill:#ffffff;fill-opacity:1;stroke:#b6ffff;stroke-width:0.0432561;stroke-miterlimit:4;stroke-dasharray:0, 0.475817;stroke-dashoffset:0;stroke-opacity:1" />
    <path
       id="path1011"
       d="m 107.98341,154.61052 c 0,-0.002 0.006,-0.0289 0.0137,-0.0606 0.16103,-0.67868 -0.0605,-1.22219 -0.62334,-1.52945 l -0.0658,-0.0359 0.44684,0.003 c 0.24577,0.002 0.50765,0.007 0.58195,0.0108 0.49968,0.0272 0.89416,0.0605 1.36825,0.11552 0.0876,0.0102 0.16048,0.0195 0.16187,0.0206 0.009,0.007 -0.10457,0.1884 -0.18626,0.2973 -0.2264,0.30183 -0.54961,0.5757 -0.97322,0.82466 -0.13755,0.0808 -0.41775,0.22338 -0.58416,0.29718 -0.13455,0.0597 -0.13981,0.0618 -0.13981,0.0564 z"
       style="fill:#ffffff;fill-opacity:1;stroke:#b6ffff;stroke-width:0.0431939;stroke-miterlimit:4;stroke-dasharray:0, 0.475133;stroke-dashoffset:0;stroke-opacity:1" />
  </g>
</svg>
